<svg width="1076" height="169" viewBox="0 0 1076 169" fill="none" xmlns="http://www.w3.org/2000/svg">
<g clip-path="url(#clip0_2043_9564)">
<path d="M151.473 67.4028C133.986 63.3296 114.21 62.0324 118.998 30.199L154.361 40.0837L166.461 43.0154C165.863 19.1468 146.294 0 122.224 0H44.0549C19.6985 0 0 19.6916 0 43.9234V80.8419C0 93.2691 6.68759 96.6937 15.0666 98.6395H15.0146C32.5012 102.739 52.2777 104.062 47.4897 135.869L12.1261 125.985L0.0260218 123.079C0.520435 146.87 20.0107 166.042 44.0549 166.042H122.484C146.789 166.042 166.539 146.351 166.539 122.119V85.1746C166.539 72.8252 159.826 69.3227 151.473 67.4028ZM83.2436 133.275C75.4891 110.029 57.0397 91.0379 32.8655 83.0212C57.0397 75.0045 75.4891 56.0652 83.2436 32.8193C91.0241 56.0652 109.448 75.0304 133.648 83.0471C109.448 91.0898 91.0241 110.029 83.2436 133.275Z" fill="white"/>
<path d="M0.025947 123.085H0V122.178C0 122.489 0 122.774 0.025947 123.085Z" fill="white"/>
<path d="M634.797 24.2309C634.797 16.5255 640.86 10.6621 648.562 10.6621C656.265 10.6621 662.328 16.5255 662.328 24.2309C662.328 31.9363 656.265 37.7997 648.562 37.7997C640.86 37.7997 634.797 31.9363 634.797 24.2309Z" fill="white"/>
<path d="M659.439 49.8613H637.633V135.243H659.439V49.8613Z" fill="white"/>
<path d="M675.857 81.0201V135.269H697.663V88.0769C697.663 62.47 736.435 62.47 736.435 88.0769V135.269H758.242V81.0201C758.242 36.8891 675.805 36.8891 675.805 81.0201H675.857Z" fill="white"/>
<path d="M344.917 57.7331C322.512 39.1831 273.383 46.9404 273.383 80.9791V135.228H295.189V88.0359C295.189 62.429 333.961 62.429 333.961 88.0359V135.228H355.768V88.0359C355.768 62.429 394.54 62.429 394.54 88.0359V135.228H416.346V80.9791C416.346 46.9404 367.217 39.1831 344.813 57.7331H344.891H344.917Z" fill="white"/>
<path d="M813.85 47.7896C787.646 47.7896 767.844 67.0402 767.844 92.4913C767.844 117.943 787.672 137.193 814.189 137.193C834.381 137.193 850.905 126.322 857.853 110.237H833.627C829.541 114.985 822.776 118.254 814.683 118.254C802.947 118.254 794.022 111.067 791.211 100.041H859.18C859.649 97.8618 859.857 95.1895 859.857 92.8546C859.857 67.0661 840.028 47.8156 813.85 47.8156V47.7637V47.7896ZM791.367 84.1114C794.386 73.5521 802.791 66.6769 813.85 66.6769C824.91 66.6769 833.835 73.7078 836.489 84.1114H791.315H791.367Z" fill="white"/>
<path d="M600.606 59.4957C593.71 52.1535 584.16 47.7949 572.58 47.7949C548.9 47.7949 530.945 66.2152 530.945 90.3433C530.945 114.471 548.9 132.892 572.788 132.892C584.212 132.892 593.762 128.533 600.658 121.346V127.028C600.658 141.272 592.096 149.807 578.643 149.807C569.926 149.807 562.38 146.175 559.179 140.312H536.228C540.313 157.876 557.019 169.006 578.461 169.006C604.821 169.006 622.464 151.935 622.464 125.99V49.8186H600.658V59.5476V59.4957H600.606ZM577.134 112.551C563.525 112.551 553.454 103.03 553.454 90.2914C553.454 77.5528 563.525 68.187 577.134 68.187C590.743 68.187 600.658 77.7085 600.658 90.2914C600.658 102.874 590.431 112.551 577.134 112.551Z" fill="white"/>
<path d="M1076 70.7926V49.8298H1056.61V24.3008H1034.81V49.8298H1015.55C994.943 49.8298 974.359 60.856 974.359 82.9085V135.264H996.166V89.9653C996.166 77.1489 1005.87 70.8186 1015.55 70.8186H1034.81V103.119C1034.81 125.172 1055.42 136.198 1076 136.198V115.313C1066.29 115.313 1056.61 108.905 1056.61 96.0882V70.8186H1076V70.7408V70.7926Z" fill="white"/>
<path d="M497.509 49.8244V59.8648C497.509 59.8648 497.353 59.6572 497.275 59.5794C472.58 32.8569 427.849 55.558 427.797 92.4765C427.797 129.395 472.554 152.044 497.275 125.374C497.353 125.296 497.431 125.166 497.509 125.088V135.129H519.315V49.8244H497.509ZM473.829 116.06C460.376 116.06 450.306 105.864 450.306 92.4506C450.306 79.0375 460.376 68.8414 473.829 68.8414C487.283 68.8414 497.509 79.0375 497.509 92.4506C497.509 105.864 487.439 116.06 473.829 116.06Z" fill="white"/>
<path d="M259.72 31.041H237.914V135.207H259.72V31.041Z" fill="white"/>
<path d="M900.503 22.8379H927.124L970.424 135.228H945.755L937.74 113.409H889.21L881.377 135.228H857.047L900.503 22.8379ZM930.064 92.7054L913.566 47.5886L896.912 92.7054H930.09H930.064Z" fill="white"/>
</g>
<defs>
<clipPath id="clip0_2043_9564">
<rect width="1076" height="169" fill="white"/>
</clipPath>
</defs>
</svg>
